<?xml version="1.0" encoding="UTF-8"?> <svg xmlns="http://www.w3.org/2000/svg" height="512pt" viewBox="0 -44 512.001 512" width="512pt"><path d="m488.46875 240.484375h-50.257812l-4.265626-17.0625h14.441407c8.558593 0 15.515625-6.960937 15.515625-15.515625v-192.390625c0-8.554687-6.957032-15.515625-15.515625-15.515625h-384.773438c-8.554687 0-15.515625 6.960938-15.515625 15.515625v192.386719c0 8.558594 6.960938 15.515625 15.515625 15.515625h14.441407l-4.265626 17.066406h-50.257812c-12.972656 0-23.53125 10.554687-23.53125 23.53125v80.160156c0 12.976563 10.558594 23.535157 23.53125 23.535157h7.386719l-6.792969 47.550781c-.308594 2.152343.332031 4.332031 1.757812 5.976562 1.425782 1.640625 3.492188 2.585938 5.667969 2.585938h16.03125c3 0 5.710938-1.789063 6.894531-4.546875l22.097657-51.566406h358.851562l22.101563 51.566406c1.179687 2.757812 3.894531 4.546875 6.894531 4.546875h16.03125c2.171875 0 4.238281-.945313 5.664063-2.585938 1.425781-1.644531 2.066406-3.824219 1.761718-5.976562l-6.792968-47.550781h7.382812c12.976562 0 23.53125-10.558594 23.53125-23.535157v-80.160156c0-12.976563-10.558594-23.53125-23.53125-23.53125zm-425.371094-32.582031v-16.546875h337.191406c4.140626 0 7.5-3.359375 7.5-7.5s-3.359374-7.5-7.5-7.5h-337.191406v-160.839844c0-.285156.230469-.515625.515625-.515625h384.773438c.285156 0 .515625.230469.515625.515625v160.839844h-16.542969c-4.144531 0-7.5 3.359375-7.5 7.5s3.355469 7.5 7.5 7.5h16.542969v16.546875c0 .285156-.230469.515625-.515625.515625h-384.773438c-.285156 0-.515625-.230469-.515625-.515625zm30.417969 15.515625h324.96875l4.265625 17.066406h-333.5zm243.160156 73.179687h-120.753906c-4.140625 0-7.5 3.359375-7.5 7.5s3.359375 7.5 7.5 7.5h120.753906v41.113282h-161.351562v-41.113282h8.527343c4.144532 0 7.5-3.359375 7.5-7.5s-3.355468-7.5-7.5-7.5h-8.527343v-41.113281h161.351562zm-321.675781 47.578125v-80.160156c0-4.703125 3.828125-8.53125 8.53125-8.53125h136.792969v97.226563h-136.792969c-4.703125 0-8.53125-3.828126-8.53125-8.535157zm27.636719 64.648438h-2.441407l5.875-41.113281h14.1875zm429.167969 0h-2.441407l-17.617187-41.113281h14.183594zm25.195312-64.648438c0 4.707031-3.828125 8.535157-8.53125 8.535157h-136.792969v-97.226563h136.792969c4.703125 0 8.53125 3.828125 8.53125 8.53125zm0 0"></path><path d="m135.757812 327.628906c4.140626 0 7.5-3.355468 7.5-7.5v-32.0625c0-4.144531-3.359374-7.5-7.5-7.5-4.140624 0-7.5 3.355469-7.5 7.5v32.0625c0 4.144532 3.359376 7.5 7.5 7.5zm0 0"></path><path d="m376.242188 280.566406c-4.140626 0-7.5 3.355469-7.5 7.5v32.0625c0 4.140625 3.359374 7.5 7.5 7.5 4.140624 0 7.5-3.359375 7.5-7.5v-32.0625c0-4.144531-3.359376-7.5-7.5-7.5zm0 0"></path></svg> 